<?xml version="1.0" encoding="UTF-8"?>
<svg id="Capa_1" xmlns="http://www.w3.org/2000/svg" version="1.1" xmlns:inkscape="http://www.inkscape.org/namespaces/inkscape" xmlns:sodipodi="http://sodipodi.sourceforge.net/DTD/sodipodi-0.dtd" xmlns:svg="http://www.w3.org/2000/svg" viewBox="0 0 538.2 155.9">
  <!-- Generator: Adobe Illustrator 30.5.1, SVG Export Plug-In . SVG Version: 2.1.4 Build 3)  -->
  <defs>
    <style>
      .st0 {
        fill: #1db954;
      }

      .st1 {
        isolation: isolate;
      }
    </style>
  </defs>
  <g id="svg1" inkscape:version="1.3.2 (091e20e, 2023-11-25, custom)" sodipodi:docname="dibujo-5.svg">
    <sodipodi:namedview id="namedview1" bordercolor="#000000" borderopacity="0.25" inkscape:current-layer="layer1" inkscape:cx="7053.3191" inkscape:cy="702.41731" inkscape:deskcolor="#d1d1d1" inkscape:document-units="mm" inkscape:export-bgcolor="#ffffff00" inkscape:pagecheckerboard="0" inkscape:pageopacity="0.0" inkscape:showpageshadow="2" inkscape:window-height="1094" inkscape:window-maximized="1" inkscape:window-width="1920" inkscape:window-x="-11" inkscape:window-y="-11" inkscape:zoom="0.51465132" pagecolor="#ffffff">
      <inkscape:page id="page1" x="0" y="0" width="210" height="297" bleed="0" margin="0"/>
    </sodipodi:namedview>
    <g id="layer1" inkscape:groupmode="layer" inkscape:label="Capa 1">
      <g id="g13">
        <g id="text1" class="st1">
          <g class="st1">
            <path d="M46,7.7s44.6.4,44.6,41.9-44.6,41.5-44.6,41.5h-16.9v30.5H0V7.7h46ZM46.4,34.6h-17.3v29.5h17.3c7.7,0,14-3.9,14-14.5s-6.3-14.9-14-14.9h0Z"/>
            <path d="M124.9,45.8c5.7-8.7,17.7-8.8,18.7-8.8,3.9,0,7.7.4,11,1.4v26.7c-4.7-.8-9.4-.8-9.4-.8-14.5,0-20.3,14-20.3,21.2v36h-29.1V38.1h29.1s0,7.7,0,7.7Z"/>
            <path d="M246.6,79.8c0,24.2-20.3,43.8-45.8,43.8s-45.8-19.7-45.8-43.8,20.3-43.8,45.8-43.8,45.8,19.7,45.8,43.8ZM217.5,79.8c0-9.6-7.3-16.9-16.7-16.9s-16.7,7.3-16.7,16.9,7.3,16.9,16.7,16.9,16.7-7.3,16.7-16.9Z"/>
            <path d="M284.7,155.9h-29.1V38.1h29.1v6.5c6.1-7.1,13.6-8.7,21.6-8.7,23.6,0,42.1,19.7,42.1,43.8s-18.5,43.8-42.1,43.8-15.5-1.6-21.6-8.7v41.1ZM284.7,79.8c0,9.8,7.7,16.9,17.5,16.9s17.1-7.1,17.1-16.9-7.7-16.9-17.1-16.9-17.5,7.1-17.5,16.9Z"/>
            <path d="M350.4,38.1h14.5v-4.9C364.9,0,391.1,0,395.4,0c7.9,0,17.5,1.4,17.5,1.4v24.6c-4.1-.8-7.1-1.2-9.8-1.2-9.2,0-9,8.7-9,8.7v4.7h19.1v26.9h-19.1v56.4h-29.1v-56.4h-14.5v-26.9h-.1Z"/>
            <path d="M414.3,38.1h31.5l15.1,45,15.3-45h31.5l-35.6,90.3c-9.6,24.6-24.4,27.5-35.6,27.5s-14.6-1.4-14.6-1.4v-26c3.1.8,7.1,1.2,10.6,1.2,5.9,0,11.4-4.5,13.6-10.4l-31.9-81.2h.1Z"/>
          </g>
        </g>
        <circle id="path1" class="st0" cx="522.9" cy="21.2" r="15.3"/>
      </g>
    </g>
  </g>
</svg>