<?xml version="1.0" encoding="UTF-8"?>
<svg id="Capa_1" data-name="Capa 1" xmlns="http://www.w3.org/2000/svg" viewBox="0 0 3123.36 541.59">
  <defs>
    <style>
      .cls-1 {
        fill: #6d6d6c;
      }

      .cls-2 {
        fill: #be9f5f;
      }
    </style>
  </defs>
  <path class="cls-1" d="M851.9,390.72l-41.92,21.53c-10.93-27.01-26.5-49.68-45.93-70.14-5.55-5.85-9.96-11.9-17.19-16.41-156.89,123.86-372.57,142.26-553.41,60.83-50.87-22.91-97.7-52.39-137.83-90.18,88.29-79.42,198.69-124.12,316.55-133.06,135.51-10.28,265.29,19.5,373.51,104.07l23.47-22.61c18.32-17.65,32.72-38.09,42.72-61.99l41.35,18.79c-17.25,37.39-41.07,68.81-72.14,96.16,29,26.79,52.56,56.19,70.82,93.01ZM400.8,392.06c15.03-21.6,24.78-43.3,29.77-67.84,7.66-43.07-6.66-85.15-31.79-120.92l-45.45,4.26,15.7,35.94c18.98,53.9,12.98,94.4-12.01,145.02l43.78,3.54ZM557.5,373.42c56.45-17.27,108.18-41.89,155.07-77.31-76.11-56.03-164.85-87.11-259.46-92.37,32.37,63.92,38.94,123.29,4.07,187.58,35.73-1.78,67.11-8.24,100.32-17.9ZM306.89,379.76c36.19-52.16,31.47-115.01-2.91-164.11-65.51,15.31-125.03,42.03-179.5,81.78,52.93,39.48,119.13,66.74,182.41,82.33Z"/>
  <g>
    <g>
      <path d="M1011.53,238.46c-3.82-13.98-6.45-27.61-13.17-42l-25.65,16.51c-.65.42-.5,1.6-2.23,1.08-.99-.3-.52-.18-.84-.86-.84-1.79,1.39-2.37,1.84-2.95l17.72-23.28c-14.23-7.38-27.43-10.21-41.73-14.94,14.13-4.06,26.65-6.42,40.22-12.68l-18.78-28.87,28.36,18.82c7.61-14.52,9.79-29.13,14.06-43.67,4.83,15.47,6.54,30.47,13.85,44.37l27.39-18.42-16.85,27.82c12.73,6.91,25.55,8.45,39.78,12.61-13.94,4.62-26.55,8.15-40.76,14.96l17.8,26.99-26.89-17.57c-7.21,13.42-9.23,26.95-14.11,42.07Z"/>
      <g>
        <path d="M1700.47,237.06c-3.28-9.57,8.31-4.91,8.3-12.49l-.09-65.88c0-6.12-7.05-4.81-8.7-7.37-.65-1.01-.18-4.73,1.62-4.72l41.52.26c11.6.07,24.27,5.62,31.26,15.52,12.42,17.58,11.17,42.38-2.11,59.08-7.17,9.01-18.48,14.53-29.78,14.76l-42.02.84ZM1756.72,165.41c-5.95-10.01-18.33-12.34-29.94-10.29l-.03,72.87c6.45,1.1,12.66,1.57,18.4-.3,18.71-6.1,23.01-43.05,11.58-62.28Z"/>
        <path d="M1434.85,237.44l-48.02-69.8-1.11,55.45c-.17,8.5,8.93,5.71,9.88,9.64.3,1.26-.46,4.08-2.05,4.08l-22.71-.03c-1.69,0-2.57-2.72-2.1-4.05,1.16-3.31,8.71-2.27,8.71-8.15l-.04-65.9c0-6.03-7.95-4.65-9.07-7.54-.48-1.25-.54-4.15,1.99-4.19l24.14-.39,38.04,55.19c3.81-14.09.72-28.43,1.72-43.07.4-5.88-9.23-4.64-9.25-8.47-.01-1.99.55-3.52,3.54-3.47l22.81.36c2.44,8.36-8.79,3.96-8.79,13.14v76.68s-7.68.52-7.68.52Z"/>
        <path d="M1837.79,205.61c-2.7-.91-1.66-9.48-6.04-10.72s-8.75-.96-14.2-.21l.16,33.8,23.36-.12c7.5-.04,8.6-13.8,11.77-16.24,1-.77,5.15-.28,5.05,1l-1.83,23.56-64.53.14c-1.08-1.53-.91-5.23.28-5.77,1.44-.66,6.81-1.07,6.8-3.73l-.18-72.62-6.99-2.42c-1.08-.37-.96-3.96.34-5.68l61.07.32.96,22.34c.05,1.07-3.59,1.84-4.42,1.13-2.31-1.98-4.55-14.94-11.42-15.07l-20.33-.37v30.95c10.31,1.84,17.08,1.27,17.8-6.06.23-2.37,1.07-3.52,2.13-4.23,1.39-.93,5.22-.22,5.22,1.55l.02,27.85c-1.64.96-3.93.95-5.01.59Z"/>
        <path d="M1261.6,206.44c.11-8.24-11.53-4.04-8.31-13l31.78.16c1.38,0,1.66,4.4.87,5.53s-5.15,1.78-5.51,3.12c-2.55,9.33-.34,19.12-1.09,28.37-10.77,5.39-22.23,8.06-34.04,7.67-20.36-.67-35.69-15.03-38.75-35.02-2.24-14.62-.65-29.64,8.09-41.88,13.54-18.95,39.84-19.81,61.89-10.72l.12,22.46c0,1.47-3.16,1.4-4.15,1.25-4.62-.71-2.5-18.75-19.7-20.87-9.51-1.17-18.47,2.76-22.21,12.49-6.4,16.68-7.06,36.05.37,52.71,5.11,11.46,19.75,13.94,30.36,8.98l.28-21.25Z"/>
        <path d="M1334.61,195.3c-4.96-2.26-10.37-1.23-15.59-.75l.25,34.41,24.07-.78c8.87-.29,8.28-15.56,12.8-16.83,1.74-.49,4.71.07,4.49,2.56l-2.02,22.91-64.76.08c-.85-1.8-1.07-5.2.38-6.01,1.38-.7,6.65-.85,6.67-3.42l.44-68.77c.04-6.81-7.65-4.72-8.05-8.34-.29-2.64.6-3.73,3.69-3.73l58.46.15,1.95,22.07c.1,1.09-3.25,1.9-4.32,1.66-4.4-.97-3.2-16.01-17.14-15.75l-16.94.31.11,31.01,12.35.55c9.97.44,3.07-14.5,13.88-10.68v28.54c0,1.41-5.02,1.77-5.85-.1-1.11-2.51-1.49-7.56-4.88-9.1Z"/>
        <path d="M1630.63,207.93l-26.12-.49-6.81,18.69c-1.42,3.89,7.27,3.51,7.73,6.75.24,1.64-.36,3.98-2.82,3.96l-21.83-.2c-1.26-1.41-1.17-5.26-.21-5.67l6.16-2.59,30.68-82.17c2.92-1.38,8.04-1.74,10.3-.05l29.74,83.28,5.78,1.68c1.38.4,1.48,5.22-.02,5.24l-33.12.4c-.94-1.72-1.01-5.16.13-5.61l6.51-2.57-6.1-20.66ZM1627.2,198.96l-9.92-27.81-10.88,28.75c8.17.36,12.92,1.36,20.8-.94Z"/>
        <path d="M1169.06,207.89l-26.21-.29c-2.43,7.07-6.03,14.16-6.42,21.05,2.17,1.19,5.63,1.7,6.75,2.45s1.17,4.27-.06,5.64l-21.69.09c-2.09,0-2.91-1.68-2.91-2.92.01-4.6,6.22-3.16,8.45-9.43l27.76-78.02c1.96-2.01,7.62-1.62,10.4-.59l28.85,79.61c1.96,5.41,8.01,4.29,8.68,7.26.53,2.33-.75,4.25-3.42,4.24l-30.98-.09c-.61-2.15-.64-4.77.24-5.72.93-1,4.29-1.65,6.43-2.56l-5.87-20.72ZM1165.33,199.03l-9.73-27.9-10.62,28.78c7.73.27,12.71,1.31,20.36-.87Z"/>
        <path d="M1506.67,229.35c18.52-2.43,13.56-21.95,21.06-20.86,2.83.41,3.46,2.35,3.15,5.54l-1.68,17.59c-21.93,11.43-51.32,8.24-63.11-13.02-13.86-25-6.59-62.67,22.11-71.51,13.63-4.2,27.82-2.04,40.71,4v22.53c-10.83,5.35-4.05-17.23-22.14-20.09-9.06-1.43-18.09,2.26-21.82,11.37-7.04,17.2-6.98,37.17,1.21,53.86,3.96,8.07,12.58,11.65,20.52,10.61Z"/>
        <path d="M2123.72,236.62l-46.66-70.36-.85,59.84c2.11,5.12,8.38,2.9,9.46,6.66.37,1.3-.17,4.09-1.82,4.08l-22.38-.12c-1.92-.01-1.98-2.74-1.74-3.89.84-3.99,8.41-2.19,8.41-8.28l-.07-62.78c0-2.71.4-5.12-1.26-7.06-1.1-1.28-3.41-1.81-5.95-2.66-1.1-.37-1.23-3.1-.72-4.92l24.71-.55,38.02,57.05c3.12-6.83.92-11.27,2.42-16.46l-.59-26.98c-.09-4.29-2.46-6.73-6.57-7.11-2.6-.24-2.8-5.9-.97-5.94l23.19-.52c1.87-.04,1.58,2.81,1.43,3.78-.6,3.76-8.87,2.15-8.87,8.33l-.03,78.1c-1.68.56-7.75,1.91-9.15-.2Z"/>
        <path d="M2026.39,195.22c-4.73-2.36-10.59-1.35-15.23-.87l.34,20.66c.07,4.23-1.63,8.08-.18,13.49l23.95-.16c8.2-.06,8.21-14.22,11.57-16.78,1.21-.92,5.31-.05,5.22,1.37l-1.61,23.87h-64.24c-1.7,0-1.8-5.2-.17-5.86,1.37-.55,6.4-1.37,6.4-3.66l.15-72.84-7.13-2.07c-1.46-.43-1.31-4.27.18-5.62l60.28-.06c1.8,7.62,1.93,15.67,1.88,22.8-8.55,5.51-6.3-14.15-17.02-14.42l-19.03-.49c-.87,10.39-1.74,20.37.3,31.15,4.94,1.04,9.61,1.38,14-.16,4.55-1.6,2.1-11.89,8.04-10.95,2.49.39,3.09,2.35,3.08,5.11l-.13,25.46c-2.46.6-4.17.7-6.53-.25-.36-2.69-.59-7.96-4.12-9.72Z"/>
        <path d="M2349.73,234.96c-14.12,6.12-29.51,3.64-42.12-3.02-.93-8.22-1.89-15.27-.84-22.8.19-1.39,3.91-2.26,4.87-1.5,3.4,2.71,3.26,16.49,12.72,20.44,7.49,3.13,15.53,2.98,21.19-2.43,3.47-3.31,3.85-8.36,2.58-13.47-.85-3.4-4.62-6.75-9.32-9.07l-18.83-9.31c-9.3-4.6-12.73-14.27-12.36-24.66.44-12.04,8.71-21.06,20.74-23.34,10.9-2.06,21.8-.24,31.67,4.19l-.25,19.9c-.03,2.08-2.58,3.49-3.88,3.28-4.17-.67-2.96-14.7-12.02-18.25-6.07-2.37-13.13-2.84-17.58,2.24s-3.59,14.24,1.48,18.19c12.16,9.47,36.6,10.03,37.84,32.61.6,10.92-4.43,22.02-15.89,26.98Z"/>
        <path d="M2266.43,207.26l-26.68.31c-2.27,7.03-5.86,14.26-6.29,21.02l6.46,2.64c1.21.49,1.36,4.27.11,5.6l-23.07-.14c-1.92-.01-1.59-2.87-1.49-3.82.44-3.89,6.41-1.26,9.68-10.2l28.23-77.07c3.32-.98,6.01-.91,9.36-.41l27.96,78.7c3.33,9.37,12.73,3.84,9.58,12.87l-33.75-.03c-1.33-.99-1.25-5.14.01-5.61l6.44-2.43-6.55-21.42ZM2263.57,199.09l-10.53-28.22-10.93,29.09c7.84.23,13.23,1.33,21.46-.87Z"/>
        <path d="M2203.23,236.58l-33.29.39c-2.43.03-3.64-1.31-3.88-3.07-.76-5.65,9.5-.71,9.45-10.88l-.35-67.53c-5.02-1.69-9.83-.93-13.51,1.51-7.41,4.92-3.92,18.12-13.51,14.71l.27-24.76,71.59-.13.09,24.49c-8.38,3.19-4.85-9.69-12.24-14.8-3.29-2.27-12.5-3.12-13.71.15l-.2,70.91c0,3.49,12.1.41,9.31,9.02Z"/>
        <path d="M1978.42,147.36c1.2.02,1.04,4.55-.42,4.93-2.63.69-6.13,2.2-7.21,5.28l-27.79,79.22c-3.49.97-6.59.93-9.95.1l-30.49-82.68c-2.37-.52-4.89-1.58-6.16-2.26-1.11-.6-1.21-3.7-.08-5.32l34.5-.34c.44,2.16.5,4.76-.36,5.71-.93,1.04-3.87,1.68-6.74,2.82l18.87,56.15,18.8-53.74c1.66-4.74-10.88-2.62-7.63-10.38l24.67.51Z"/>
        <path d="M1574,230.95c2.85.46,2,5.88.47,5.88l-32.55.03c-1.33-1.67-1.32-5.35-.16-5.77l6.7-2.44.39-69.8c.04-6.85-7.41-4.3-8.17-8.35-.42-2.24.48-4.22,3.05-4.19l31.72.37-.1,4.47c-.05,2.35-8.58,1.21-8.56,7.54l.25,68.86c0,2.36,5.05,3.08,6.96,3.39Z"/>
      </g>
    </g>
    <g>
      <path class="cls-2" d="M1798.9,300.47l33.94-.25c2.67-.02,2.8,2.78,2.74,4.19-.29,6.54-10.97,2.55-15.26,15.05l-39.35,114.47c-4.5.81-8.67.63-13.96.18l-43.04-115.87c-2.21-5.94-5-9.44-12.08-9.49-.67-2.94-.85-5.61.29-8.45l51.34-.03c.94,2.32,1.2,7.24-.99,8.19-3.21,1.39-6.59.95-9.83,4.44l28.36,82.24,27.36-81.24c.98-2.91-6.94-5.29-8.78-4.57-3.31-1.84-2.85-7.26-.75-8.86Z"/>
      <path class="cls-2" d="M2060.98,395.74c1.03-2.51,4.32-3.3,5.81-2.79,2.08.71,3.48,3.24,3.35,6.3l-1.43,33.69-95.7-.15c-3.3-12.36,11.13-5.84,11.09-15.54l-.39-103.13c-.02-4.32-6.92-4.58-9.28-5.37-2.89-.96-2.33-6.25-.84-8.41l48.47-.13c1.57,2.48,1.79,7.4-.75,8.71-1.96,1-7.88.94-9.5,3.86l-.23,108.31,29.67.11c5.57.02,10.58-3.25,12.53-7.99l7.21-17.47Z"/>
      <path class="cls-2" d="M2379.68,432.53l-50.8.22c-3.91-12.64,11.48-4.73,11.47-18.6l-.07-93.89c0-3.05-.58-6.09-1.9-7.93-1.76-2.44-5.32-2.43-8.53-3.61-2.32-.86-2.07-6.15-.51-8.39l49.92.14c.2,3.14.47,5.63-.37,7.12-1.28,2.24-11.63,1.52-11.64,8.05l-.07,100.14c0,9.62,8.86,6.93,13.39,10.54,1.02.81.42,6.22-.9,6.22Z"/>
      <path class="cls-2" d="M1899.82,435.57c-26.73.89-48.84-14.19-58.21-38.23-7.53-19.32-8.15-40.5-1.21-59.88,8.18-22.85,26.99-37.71,51.07-39.7,21.62-1.79,43.11,5.48,55.25,24.26,16.41,25.38,16.9,58.65,2.03,84.83-10.18,17.93-27.96,28.02-48.93,28.73ZM1928.99,367.94c-.02-28.12-7.42-60.77-34.94-58.99-10.01.65-18.66,7.81-22.4,18.74-12.46,36.42-5.85,95.45,25.37,95.98,24.7.42,32-29.77,31.98-55.73Z"/>
      <path class="cls-2" d="M2511,397.81c-11.07,27.38-37.05,41.11-65.16,37.31-23.45-3.17-41.44-18.3-48.08-41.01-6.62-22.62-5.88-46.72,5.69-67.21,10.67-18.91,28.99-28.42,50.14-29.33,25.72-1.11,48.02,12.2,57.68,36.66,7.89,19.99,8.12,42.83-.27,63.57ZM2486.4,368.68c.96-27.5-6.54-61.53-33.44-59.69-10.32.7-18.99,7.09-23.02,17.9-9.27,24.89-9.43,52.88-.09,77.63,4.26,11.31,12.13,18.76,23.14,19.27,27.32,1.26,32.46-28.1,33.41-55.11Z"/>
      <path class="cls-2" d="M2626.86,433.99l-71.72-104.63-.25,82.91c0,2.81.64,6.33,1.79,8.4,2.09,3.74,10.65,2.41,12.2,5.73.65,1.4.77,5.96-.77,6.28l-37.22.14c-4.36-12.27,11.7-6.38,11.67-17.08l-.25-101.6c-.01-4.42-7.62-4.51-10.16-5.48-2.98-1.13-2.32-5.91-1.08-8.36l36.36.08,59.85,85.75.96-69.11c-1.16-5.48-5.74-7.96-11.41-7.87-2.41-2.26-2.32-5.81-.55-8.94h36.15c5.02,13.01-12.25,6.69-12.28,17.14l-.34,116.49c-4.68.96-8.05,1.03-12.97.15Z"/>
      <path class="cls-2" d="M1665.51,370.11l-19.79.37-.67,50.53,33.08.21c5.59.03,10.76-2.99,12.77-7.61l7.21-16.56c.91-2.09,4.07-3.11,5.47-2.69,1.85.55,3.97,2.34,3.7,5.04l-3.26,33.51-96.89-.11c-4.09-12.53,11.45-6.83,11.44-15.73l-.15-103.9c-1.22-3.23-7.57-3.46-9.76-4.46-2.42-1.1-2.31-4.97-1.37-8.34l91.42.25,3.65,32c-.77,2.06-7,2.83-7.95,1.08-5.82-10.76-7.99-22.13-22.25-22.06l-26.58.12-.44,47c8.31.66,16.03,1.24,23.77-1.37,5.76-1.94,4.19-12.29,9.48-16.45,1.19-.93,5.73-.61,5.76,1.44l.57,43.46c-2.82,1.26-4.78,1.28-7.02.91-3.74-.62-1.29-16.86-12.19-16.66Z"/>
      <path class="cls-2" d="M2160.72,300.36l35.34-.02c3.05,0,2.69,3.62,2.59,5.31-.36,5.73-13.46,1.75-13.58,12.94l-.78,73.34c-.15,13.9-5.65,27.04-16.44,35.24-18.01,13.7-55.49,11.81-70.86-8.84-6.76-9.08-9.87-20.9-9.87-32.39v-68.86c0-9.76-11.13-5.75-12.14-11.57-.27-1.58-.09-5.16,2.66-5.16l49.3.05c.56,3.02.53,4.52.25,6.59-.45,3.3-12.3,1.18-12.26,10.09l.3,71.78c.04,9.29,2.58,19.25,9.63,25.52,10.94,9.72,29.89,8.91,39.53-2.43,5.81-6.84,7.75-17.15,7.71-26.06l-.28-71.71c-.02-4.15-7.9-4.6-10.24-5.39-2.47-1.7-1.77-5.69-.86-8.42Z"/>
      <path class="cls-2" d="M2295.6,413.95c8.42-9.48,5.63-22.26,13.68-21.45,2.41.24,4.56,2.87,4.25,5.97l-2.9,28.37c-14.9,5.78-30.04,9.77-45.91,8.68-42.56-2.94-61.82-42.26-55.81-84.17,3.92-27.36,24.26-49.05,52-52.84,16.9-2.31,33.26.02,48.46,7.58l2.01,30.5c.24,3.66-3.63,3.96-6.18,3.6-5.91-.84-4.41-27.84-28.92-31.18-13.73-1.87-26.42,5.42-31.8,19.25-12.58,32.36-6.74,86.08,19.59,93.35,11.95,3.3,23.59,1.3,31.53-7.66Z"/>
      <path class="cls-2" d="M1044.59,434.1l-59.99-88.17c-3.98-5.84-7.15-11.14-12.4-16.54l.32,82.84c.01,3.3.59,7.24,2.63,9.28s5.48,2.08,8.97,3.07c1.97.56,1.99,5.1,1.16,8.15l-37.26.06c-3.73-12.22,12.43-6.56,12.39-17.05l-.4-101.53c-.35-4.08-7.83-4.39-10.27-5.55-2.88-1.36-2.34-5.86-1.19-8.41l36.41.06,59.13,85.25,1.12-65.37c.06-3.45-1.36-6.87-3.33-8.57-2.19-1.89-5.58-1.73-8.88-3-1.88-.72-1.42-6.03-.47-8.21l36.08-.05c5.82,12.42-11.29,5.81-11.31,18.35l-.22,114.92c-3.87.85-8.82,1.71-12.48.46Z"/>
      <path class="cls-2" d="M1273.84,370.7c-7.7-1.64-14.61-.47-22.47-.49l.09,51.02h32.17c5.88.01,11.94-2.95,14.07-7.95l7.07-16.63c.62-1.46,3.66-2.36,4.86-2.33,1.44.03,4.38,2.44,4.21,4.32l-3.14,34.23-97.9-.11.29-6.36c.15-3.19,12.03-.84,12.03-10.65l.02-98.61c0-9.84-10.45-6.22-12.13-10.51-.66-1.7-.5-6.28,2.5-6.27l90.48.07,1.84,32.48c.08,1.48-4.05,1.94-5.31,1.56-4.48-1.36-6.39-19.24-16.08-21.56-11.42-2.73-22.8-.92-35.16-1.03l.11,47.16c8.39.07,15.78.74,23.25-1.3,5.42-1.48,4.56-13.54,8.81-15.79,1.41-.75,6.14-.65,6.17,1.48l.49,40.41c.03,2.51-3.86,3.19-5.36,2.75-5.16-1.52-3.37-14.29-10.93-15.91Z"/>
      <path class="cls-2" d="M1165.43,300.34l35.38.19c2.15.01,2.12,7.77,0,8.04-7.29.93-11.78,3.96-11.87,11.65l-.89,75.21c-.18,15.21-8.6,28.98-22.05,35.31-13.04,6.14-27.31,6.08-41.09,2.83-18.92-4.46-32.56-19.85-32.77-39.64l-.82-79.9c-.04-4.18-7.49-4.46-10.03-5.43s-1.92-7.46.13-8.18h48.82c1.61,0,2.01,4.84,1.26,6.21-2.37,4.39-12.26,1.24-12.18,10.5l.65,76.11c.08,9.18,4.5,18.36,11.98,23.34,11.74,7.83,28.87,5.26,37.32-6.06,5.17-6.92,7.62-15.97,7.61-24.66l-.08-70.21c0-5.12-7.27-6-10.52-7.01-2.85-.89-2.24-6.02-.85-8.33Z"/>
      <path class="cls-2" d="M1500.75,388.79l-39.57-.03-9.67,31.68c.89,2.72,7.22,4.1,9.68,4.2,1.41,2.85,1.22,5.13.4,8.21h-35.98c-1.4-1.35-1.91-6.2.41-7.84s9.49-1.67,10.96-5.68l43.87-119.81c5.15-1.43,9.75-1.41,14.96,0l45.33,121.15,9.7,4.71c1.75.85,1.44,5.21.54,7.49l-50.1.1c-1.25-1.66-1.66-4.21-1.46-5.77.46-3.53,12.01-3.37,10.44-8.31l-9.5-30.1ZM1496.32,377.46l-15.19-42.37-15.64,42.37h30.83Z"/>
      <path class="cls-2" d="M1404.95,300.45l37.33-.26c.35,3.33.31,6-.49,8.9-7.98.68-11.92,4.95-14.35,11.85l-39.91,113.16-14.31-.19-44.04-120.06c-1.32-3.6-6.37-3.91-8.88-5.17-2.84-1.42-2.41-5.79-1.01-8.33l50.06-.12c.64,3.01,1.37,5.95-.88,9.22-3.39-1.3-10.08,2.01-8.6,6.22l28.07,79.7,28.92-81.27c-2.49-4.63-6.85-5.33-11.84-5.1-1.27-2.44-1.2-5.33-.08-8.55Z"/>
      <path class="cls-2" d="M2479.2,272.56l-31.59,18.79c-1.43.85-4.58-.06-5.52-.68-1.17-.77-2.11-3.71-.77-5.5l21.69-28.88c4.09-5.45,11.24-2.7,15.45,1.5,2.3,2.3,4.45,3.83,4.76,6.55.35,3.11-.91,6.36-4.03,8.22Z"/>
    </g>
  </g>
  <g>
    <path d="M2771.51,434.88c-13.43,2.53-26.37-.12-38.35-6.36l-.55-24.45c-.03-1.52,4.2-1.98,5.26-1.18,2.76,2.09,2.64,14.79,12.41,20.73,6.66,4.04,13.81,4.57,20.33,1.12,5.12-2.71,7.03-8.78,6.61-14.28-.36-4.8-3.56-9.8-8.91-12.28l-16.3-7.57c-13.51-6.27-21.04-18.91-18.69-32.88s14.13-24.72,29.79-25.09c9.65-.23,18.79,1.58,27.31,6.23v22.45c0,1.42-4.05,1.84-5.23,1.24-2.94-1.5-3.69-20.18-20.53-20.23-7.29-.02-12.66,4.18-14.26,9.85-2.16,7.64,1.28,13.73,8.37,17.06l20.25,9.5c12.4,5.82,18.92,17.78,17.18,30.92-1.64,12.38-10.47,22.55-24.7,25.23Z"/>
    <path d="M3018.72,431.19c-16.02,7.85-33.87,5.45-48.41-3.02l-1.23-19.83c-.2-3.22.27-5.49,2.65-5.91,7.96-1.4,4.09,14.16,16.15,21.2,6.97,4.07,14.7,4.69,21.41.62,4.55-2.76,6.19-8.81,5.83-13.79-.36-4.89-3.8-9.85-9.14-12.43l-18.98-9.17c-10.45-5.05-16.57-14.21-16.78-25.12-.21-10.96,4.63-22.21,15.4-27.28,13.38-6.31,29.36-4.68,41.85,2.49l.63,22.98c-11.51,5.57-6.32-11.78-18.58-17.57-5.58-2.64-12.55-2.82-17.72.97-4.32,3.16-5.23,8.87-4.59,13.53.64,4.66,3.91,8.48,8.91,10.74l19.49,8.81c10.63,4.8,17.46,14.04,18.04,25.33.54,10.51-4.15,22.15-14.96,27.44Z"/>
    <path d="M2861.64,401.51l-7.06,19.47c-.54,1.49-.56,3.18-.06,3.99,1.57,2.49,6.17,2.16,7.37,3.34.94.93,1.26,3.14.56,5.88l-28.07-.08c-.41-2.09-.4-4.88.43-6.48,5.83-.4,8.23-3.51,10.06-8.58l30.93-85.8c4.02-.54,6.71-.76,10.32-.02l33.63,92.66c2.6.55,5.66,1.04,6.61,2.12,1.3,1.47,1.11,4.34.07,6.12h-36.62c-.55-2.43-.41-4.8.42-5.79s4.48-1.77,6.54-2.72c-.4-7.72-4.12-15.87-6.55-23.68l-28.6-.43ZM2886.6,392.79l-10.84-30.39-11.52,30.83,22.36-.45Z"/>
    <circle cx="3056.15" cy="424.34" r="11.6"/>
    <circle cx="2817.52" cy="424.24" r="11.58"/>
    <circle cx="2946.33" cy="424.34" r="11.44"/>
  </g>
</svg>